<?xml version="1.0" ?><svg data-name="Layer 1" id="Layer_1" viewBox="0 0 512 512" xmlns="http://www.w3.org/2000/svg"><path d="M382.73,123.1A58.68,58.68,0,1,0,302,59.47a156.44,156.44,0,0,0-51.38-8.67c-86.62,0-157.1,70.47-157.1,157.1a155.06,155.06,0,0,0,2.15,25.26l-.31.08,2.16,9.5a156.09,156.09,0,0,0,111.7,116.78c-.43,10.33-2.55,18.23-7.1,19.69a188.45,188.45,0,0,0-36.15,15.64c-38.82,22.2-57.93,55.83-55.27,97.25l.6,9.53H389.91l.61-9.53c2.65-41.42-16.45-75.05-55.27-97.25h0a189.18,189.18,0,0,0-36.15-15.63c-4.36-1.4-6.59-9.18-7.07-19.75A156.62,156.62,0,0,0,406.75,224.79h0v0l.35-3.4-.07-.12c.38-4.4.64-8.83.64-13.33A156.16,156.16,0,0,0,382.73,123.1ZM292.87,398.59a168.67,168.67,0,0,1,32.28,13.92c29,16.57,44.13,39.67,45.21,68.77H349a100.43,100.43,0,0,0-10.71-17.76,50.64,50.64,0,0,0-36.18-20.06,51.87,51.87,0,0,0-40.07,14,105.66,105.66,0,0,0-10,10.82,107.88,107.88,0,0,0-10-10.82,51.81,51.81,0,0,0-40.06-14,50.65,50.65,0,0,0-36.2,20.05,100.82,100.82,0,0,0-10.71,17.77H130.83c1.07-29.1,16.25-52.2,45.21-68.77a168.1,168.1,0,0,1,32.27-13.92c14.3-4.6,19.72-19.13,21.06-35a158.71,158.71,0,0,0,42.44,0C273.16,379.45,278.58,394,292.87,398.59Zm-42.28-53.95a135.89,135.89,0,0,1-130.8-97.07l.16,0c1.92-.56,3.82-1.14,5.72-1.72,1.4-.42,2.81-.83,4.2-1.26,1.8-.56,3.58-1.13,5.36-1.7,1.47-.47,3-.93,4.4-1.41,1.72-.56,3.41-1.14,5.11-1.71,1.49-.5,3-1,4.45-1.5,1.67-.57,3.31-1.16,4.95-1.74,1.48-.52,3-1,4.44-1.57s3.2-1.18,4.79-1.77,2.94-1.08,4.39-1.63,3.11-1.19,4.66-1.8,2.9-1.11,4.33-1.68,3-1.2,4.48-1.8l2.66-1.06c0,.42-.06.84-.06,1.27a17.21,17.21,0,1,0,28-13.4c.92-.42,1.81-.85,2.71-1.27l4.1-1.92,3.69-1.76c1.35-.65,2.7-1.3,4-2l3.52-1.73,4-2,3.32-1.68,4-2,3.13-1.63,3.88-2,3-1.59,3.81-2.07,2.78-1.53,3.75-2.09,2.61-1.46,3.65-2.09,2.44-1.41c1.22-.7,2.4-1.39,3.58-2.09l2.24-1.32c1.21-.71,2.38-1.42,3.55-2.12l2-1.21c1.18-.72,2.34-1.42,3.48-2.13l1.82-1.11,3.38-2.11,1.64-1,3.34-2.13,1.38-.88,3.28-2.13,1.19-.78,3.15-2.08,1-.68,3.11-2.09.75-.51,3-2.07.56-.38,2.92-2,.34-.24c3.13-2.2,5.79-4.13,7.94-5.71,1.65,1.43,3.28,2.91,4.91,4.44.7.65,1.38,1.33,2.07,2,.92.89,1.85,1.77,2.77,2.69s1.6,1.64,2.4,2.47,1.57,1.61,2.35,2.43,1.67,1.81,2.51,2.73,1.43,1.55,2.14,2.35c.86,1,1.71,1.94,2.56,2.92.66.76,1.33,1.51,2,2.28.86,1,1.72,2,2.58,3.07.61.74,1.23,1.48,1.83,2.22.87,1.06,1.72,2.13,2.57,3.19l1.71,2.15,2.54,3.28,1.59,2.09c.84,1.1,1.67,2.21,2.48,3.32l1.49,2c.82,1.11,1.62,2.22,2.41,3.32l1.42,2,2.26,3.22c.48.68.94,1.35,1.4,2l2.1,3.06,1.39,2.06c.64.95,1.28,1.9,1.89,2.83l1.44,2.19c.55.83,1.08,1.65,1.6,2.46l1.64,2.54,1.16,1.82c.7,1.1,1.37,2.18,2,3.23.16.27.34.54.5.81l.55.89A136.39,136.39,0,0,1,250.59,344.64Z"/><path d="M298.41,243.66a17.21,17.21,0,1,0-17.21-17.21A17.22,17.22,0,0,0,298.41,243.66Z"/><path d="M306.94,267.29a88.59,88.59,0,0,1-114.42,0,8.82,8.82,0,0,0-11.39,13.47,106.23,106.23,0,0,0,137.18,0,8.81,8.81,0,1,0-11.37-13.47Z"/></svg>